<svg width="64" height="58" viewBox="0 0 64 58" fill="none" xmlns="http://www.w3.org/2000/svg">
<rect y="0.450256" width="64" height="56.9154" rx="28.4577" fill="#52C41A"/>
<path d="M42.8275 36.7705C42.238 35.3741 41.3825 34.1058 40.3087 33.0361C39.2382 31.9633 37.9701 31.108 36.5743 30.5173C36.5618 30.5111 36.5493 30.508 36.5368 30.5017C38.4837 29.0955 39.7493 26.8048 39.7493 24.2205C39.7493 19.9392 36.2806 16.4705 31.9993 16.4705C27.7181 16.4705 24.2493 19.9392 24.2493 24.2205C24.2493 26.8048 25.515 29.0955 27.4618 30.5048C27.4493 30.5111 27.4368 30.5142 27.4243 30.5205C26.0243 31.1111 24.7681 31.958 23.69 33.0392C22.6172 34.1097 21.7619 35.3779 21.1712 36.7736C20.591 38.14 20.278 39.605 20.2493 41.0892C20.2485 41.1226 20.2544 41.1557 20.2666 41.1868C20.2787 41.2179 20.297 41.2462 20.3203 41.27C20.3436 41.2939 20.3715 41.3129 20.4022 41.3258C20.433 41.3388 20.466 41.3455 20.4993 41.3455H22.3743C22.5118 41.3455 22.6212 41.2361 22.6243 41.1017C22.6868 38.6892 23.6556 36.4298 25.3681 34.7173C27.14 32.9455 29.4931 31.9705 31.9993 31.9705C34.5056 31.9705 36.8587 32.9455 38.6306 34.7173C40.3431 36.4298 41.3118 38.6892 41.3743 41.1017C41.3775 41.2392 41.4868 41.3455 41.6243 41.3455H43.4993C43.5327 41.3455 43.5657 41.3388 43.5965 41.3258C43.6272 41.3129 43.6551 41.2939 43.6784 41.27C43.7017 41.2462 43.72 41.2179 43.7321 41.1868C43.7443 41.1557 43.7502 41.1226 43.7493 41.0892C43.7181 39.5955 43.4087 38.1423 42.8275 36.7705ZM31.9993 29.5955C30.565 29.5955 29.215 29.0361 28.1993 28.0205C27.1837 27.0048 26.6243 25.6548 26.6243 24.2205C26.6243 22.7861 27.1837 21.4361 28.1993 20.4205C29.215 19.4048 30.565 18.8455 31.9993 18.8455C33.4337 18.8455 34.7837 19.4048 35.7993 20.4205C36.815 21.4361 37.3743 22.7861 37.3743 24.2205C37.3743 25.6548 36.815 27.0048 35.7993 28.0205C34.7837 29.0361 33.4337 29.5955 31.9993 29.5955Z" fill="white"/>
</svg>
