<svg width="1440" height="715" viewBox="0 0 1440 715" fill="none" xmlns="http://www.w3.org/2000/svg">
<g clip-path="url(#clip0_188_5851)">
<path d="M2102 0H-1084V828H2102V0Z" fill="#F6F5F1"/>
<path d="M2102 0H-1084V828H2102V0Z" fill="url(#paint0_radial_188_5851)"/>
<path d="M2102 0H-1084V828H2102V0Z" fill="url(#paint1_radial_188_5851)"/>
<path d="M2102 0H-1084V828H2102V0Z" fill="url(#paint2_radial_188_5851)"/>
<path d="M2102 0H-1084V828H2102V0Z" fill="url(#paint3_radial_188_5851)"/>
<path d="M2102 0H-1084V828H2102V0Z" fill="url(#paint4_radial_188_5851)"/>
<path d="M2102 0H-1084V828H2102V0Z" fill="url(#paint5_radial_188_5851)"/>
</g>
<defs>
<radialGradient id="paint0_radial_188_5851" cx="0" cy="0" r="1" gradientUnits="userSpaceOnUse" gradientTransform="translate(-1084 828) scale(2124 828)">
<stop stop-color="#BECBBE"/>
<stop offset="1" stop-color="#BECBBE" stop-opacity="0"/>
</radialGradient>
<radialGradient id="paint1_radial_188_5851" cx="0" cy="0" r="1" gradientUnits="userSpaceOnUse" gradientTransform="translate(2102 828) scale(2124 828)">
<stop stop-color="#F3EAD8"/>
<stop offset="1" stop-color="#F3EAD8" stop-opacity="0"/>
</radialGradient>
<radialGradient id="paint2_radial_188_5851" cx="0" cy="0" r="1" gradientUnits="userSpaceOnUse" gradientTransform="translate(509) scale(1593 621)">
<stop stop-color="#B1C4A8"/>
<stop offset="1" stop-color="#B1C4A8" stop-opacity="0"/>
</radialGradient>
<radialGradient id="paint3_radial_188_5851" cx="0" cy="0" r="1" gradientUnits="userSpaceOnUse" gradientTransform="translate(509 828) scale(1593 621)">
<stop stop-color="#F6F5F1"/>
<stop offset="1" stop-color="#F6F5F1" stop-opacity="0"/>
</radialGradient>
<radialGradient id="paint4_radial_188_5851" cx="0" cy="0" r="1" gradientUnits="userSpaceOnUse" gradientTransform="translate(-1084) scale(2124 828)">
<stop stop-color="#7AA4A0"/>
<stop offset="1" stop-color="#7AA4A0" stop-opacity="0"/>
</radialGradient>
<radialGradient id="paint5_radial_188_5851" cx="0" cy="0" r="1" gradientUnits="userSpaceOnUse" gradientTransform="translate(2102) scale(2124 828)">
<stop stop-color="#F5DEC1"/>
<stop offset="1" stop-color="#F5DEC1" stop-opacity="0"/>
</radialGradient>
<clipPath id="clip0_188_5851">
<rect width="3186" height="828" fill="white" transform="translate(-1084)"/>
</clipPath>
</defs>
</svg>
