<svg width="550" height="387" viewBox="0 0 550 387" fill="none" xmlns="http://www.w3.org/2000/svg">
<path d="M484.983 330.591C509.557 289.909 515.863 238.578 508.838 191.503C507.506 182.536 505.546 173.685 502.971 165.025C485.709 107.346 441.423 61.146 389.011 36.8347C339.005 13.6147 275.792 2.14397 228.411 37.8795C197.215 61.4091 179.549 99.1184 150.986 125.512C136.789 138.67 121.249 142.888 104.353 150.736C63.1913 169.862 28.732 206.743 25.9013 255.42C24.208 281.732 30.1585 307.964 42.9587 330.614L484.983 330.591Z" fill="#1D3E5B"/>
<path opacity="0.8" d="M484.983 330.591C509.557 289.909 515.863 238.578 508.838 191.503C507.506 182.536 505.546 173.685 502.971 165.025C485.709 107.346 441.423 61.146 389.011 36.8347C339.005 13.6147 275.792 2.14397 228.411 37.8795C197.215 61.4091 179.549 99.1184 150.986 125.512C136.789 138.67 121.249 142.888 104.353 150.736C63.1913 169.862 28.732 206.743 25.9013 255.42C24.208 281.732 30.1585 307.964 42.9587 330.614L484.983 330.591Z" fill="white"/>
<path d="M286.396 63.7389C286.235 63.1894 286.059 62.6476 285.868 62.098C278.967 41.8347 246.855 40.426 246.855 65.3411C246.855 70.1321 235.95 65.3411 231.865 71.5331C227.781 77.7251 232.32 81.5951 226.864 83.5223C221.408 85.4496 220.961 80.6431 214.141 81.1229C207.321 81.6028 208.237 88.3134 205.964 90.2329C203.691 92.1524 203.691 91.1927 198.697 91.6726C193.703 92.1524 192.786 95.9915 192.786 95.9915H312.319C312.319 95.9915 316.859 81.6028 308.653 76.3319C300.447 71.0609 300.476 78.2437 294.111 75.3721C288.853 73.0346 287.87 68.5222 286.396 63.7389Z" stroke="#B2B2B2" stroke-linecap="round" stroke-linejoin="round"/>
<path d="M290.532 90.7824C290.532 90.7824 293.003 82.7096 286.931 76.7653C280.859 70.821 274.553 74.1569 272.756 76.7653C270.959 79.3737 270.952 84.366 268.026 84.8459C265.1 85.3257 265.782 79.6214 259.475 81.0455C253.169 82.4697 255.655 89.1183 252.729 90.5425C249.803 91.9667 249.795 86.7422 245.747 88.4063C241.699 90.0704 241.927 93.1586 241.927 93.1586" stroke="#B2B2B2" stroke-linecap="round" stroke-linejoin="round"/>
<path d="M258.214 74.6446C256.556 73.4003 254.613 72.6467 252.586 72.4616C250.559 72.2765 248.522 72.6667 246.686 73.5919C240.174 76.7653 243.181 83.3753 240.174 84.962C237.167 86.5487 235.664 84.6911 231.902 86.51C228.14 88.3289 228.397 90.9992 228.397 90.9992" stroke="#B2B2B2" stroke-linecap="round" stroke-linejoin="round"/>
<path d="M200.244 108.732C200.171 108.499 200.09 108.259 200.009 108.019C197.01 99.2036 183.04 98.5998 183.04 109.428C183.04 111.518 178.295 109.428 176.513 112.137C174.731 114.846 176.711 116.526 174.313 117.354C171.915 118.182 171.739 116.108 168.777 116.317C165.814 116.526 166.203 119.413 165.22 120.28C164.237 121.146 164.23 120.698 162.052 120.907C159.874 121.116 159.485 122.78 159.485 122.78H211.471C211.471 122.78 213.451 116.526 209.887 114.266C206.323 112.006 206.331 115.102 203.566 113.848C201.307 112.772 200.882 110.814 200.244 108.732Z" stroke="#B2B2B2" stroke-linecap="round" stroke-linejoin="round"/>
<path d="M202.041 120.496C202.329 119.426 202.335 118.294 202.058 117.22C201.782 116.147 201.233 115.174 200.471 114.405C197.831 111.82 195.089 113.267 194.304 114.405C193.519 115.543 193.519 117.71 192.251 117.919C190.982 118.128 191.268 115.643 188.525 116.263C185.783 116.882 186.861 119.776 185.592 120.396C184.323 121.015 184.316 118.739 182.556 119.467C180.796 120.194 180.891 121.533 180.891 121.533" stroke="#B2B2B2" stroke-linecap="round" stroke-linejoin="round"/>
<path d="M187.975 113.476C187.256 112.934 186.411 112.606 185.53 112.525C184.649 112.445 183.764 112.616 182.967 113.019C180.129 114.397 181.434 117.276 180.129 117.965C178.823 118.654 178.171 117.849 176.535 118.654C174.9 119.459 175.01 120.612 175.01 120.612" stroke="#B2B2B2" stroke-linecap="round" stroke-linejoin="round"/>
<path d="M475.288 108.732C475.215 108.499 475.141 108.259 475.061 108.019C472.054 99.2036 458.084 98.5998 458.084 109.428C458.084 111.518 453.339 109.428 451.565 112.137C449.79 114.846 451.763 116.526 449.365 117.354C446.967 118.182 446.798 116.108 443.835 116.317C440.873 116.526 441.261 119.413 440.271 120.28C439.281 121.146 439.289 120.698 437.111 120.907C434.933 121.116 434.544 122.78 434.544 122.78H486.53C486.53 122.78 488.503 116.526 484.946 114.266C481.389 112.006 481.389 115.102 478.625 113.848C476.359 112.772 475.933 110.814 475.288 108.732Z" stroke="#B2B2B2" stroke-linecap="round" stroke-linejoin="round"/>
<path d="M477.085 120.496C477.373 119.427 477.38 118.295 477.105 117.222C476.83 116.149 476.283 115.175 475.523 114.405C472.875 111.82 470.14 113.267 469.356 114.405C468.571 115.543 468.571 117.71 467.295 117.919C466.019 118.128 466.32 115.643 463.577 116.263C460.834 116.882 461.912 119.776 460.644 120.396C459.375 121.015 459.367 118.739 457.607 119.467C455.847 120.194 455.943 121.533 455.943 121.533" stroke="#B2B2B2" stroke-linecap="round" stroke-linejoin="round"/>
<path d="M463.027 113.476C462.306 112.933 461.46 112.605 460.578 112.524C459.696 112.444 458.809 112.615 458.011 113.019C455.18 114.397 456.485 117.276 455.18 117.965C453.875 118.654 453.215 117.849 451.579 118.654C449.944 119.459 450.054 120.612 450.054 120.612" stroke="#B2B2B2" stroke-linecap="round" stroke-linejoin="round"/>
<path d="M80.7987 303.95C81.8556 304.244 82.9478 304.371 84.04 304.329C84.04 304.329 83.5487 302.742 83.5047 302.649C82.9987 301.535 81.4074 299.693 80.1094 299.879C79.8941 299.915 79.6885 299.999 79.5061 300.125C79.3237 300.251 79.1686 300.416 79.0509 300.609C78.9332 300.803 78.8556 301.021 78.8231 301.248C78.7907 301.476 78.8042 301.708 78.8627 301.93C79.0251 302.396 79.2827 302.818 79.6173 303.167C79.9519 303.517 80.3553 303.784 80.7987 303.95Z" fill="#263238"/>
<path d="M103.4 329.647C103.497 329.44 103.551 329.214 103.56 328.984C103.568 328.754 103.531 328.525 103.45 328.311C103.369 328.097 103.247 327.903 103.09 327.743C102.934 327.582 102.747 327.458 102.542 327.379C101.303 326.945 99.4033 328.431 98.714 329.422C98.714 329.469 98.45 329.887 98.2373 330.273H102.967C103.145 330.093 103.291 329.88 103.4 329.647Z" fill="#263238"/>
<path d="M96.3746 323.199C97.2239 323.799 98.1566 324.256 99.1392 324.554C99.0439 325.034 98.9486 325.506 98.8312 325.97C98.7506 326.28 98.6919 326.582 98.5892 326.891C98.4866 327.201 98.4059 327.495 98.3106 327.797C98.1126 328.369 97.9146 328.958 97.7092 329.507C97.6139 329.778 97.5186 330.026 97.4232 330.281H98.1932C98.2519 330.119 98.3106 329.956 98.3692 329.778C98.5672 329.205 98.7506 328.633 98.9486 328.013L99.2126 327.1C99.3006 326.798 99.3666 326.465 99.4399 326.14C99.6086 325.366 99.7479 324.631 99.8726 323.818C100.841 324.241 101.865 324.502 102.909 324.592C103.38 324.589 103.845 324.479 104.272 324.267C104.698 324.056 105.076 323.75 105.38 323.369C105.505 323.181 105.591 322.967 105.632 322.741C105.674 322.515 105.67 322.283 105.621 322.059C105.572 321.835 105.479 321.624 105.347 321.441C105.216 321.257 105.05 321.105 104.859 320.993C103.693 320.366 101.603 321.527 100.775 322.402C100.723 322.456 100.195 323.176 99.9166 323.54C99.9826 323.075 100.056 322.603 100.107 322.131C100.269 320.761 100.393 319.368 100.525 317.982C100.525 317.557 100.606 317.131 100.65 316.705C101.653 317.129 102.711 317.39 103.789 317.479C104.26 317.476 104.725 317.365 105.152 317.154C105.578 316.943 105.956 316.637 106.26 316.256C106.385 316.068 106.471 315.854 106.512 315.628C106.554 315.402 106.55 315.17 106.501 314.946C106.452 314.722 106.359 314.511 106.227 314.328C106.096 314.144 105.93 313.992 105.739 313.88C104.573 313.253 102.483 314.414 101.655 315.289C101.596 315.351 100.833 316.357 100.657 316.62C100.745 315.684 100.848 314.755 100.987 313.842C101.157 312.611 101.402 311.393 101.721 310.196C102.731 310.62 103.797 310.881 104.881 310.97C105.352 310.968 105.816 310.857 106.241 310.646C106.667 310.435 107.044 310.128 107.345 309.747C107.471 309.56 107.558 309.346 107.6 309.121C107.642 308.895 107.638 308.663 107.589 308.439C107.54 308.216 107.446 308.005 107.315 307.822C107.183 307.64 107.016 307.488 106.825 307.379C105.659 306.744 103.576 307.913 102.747 308.787C102.681 308.849 101.867 309.933 101.728 310.134C101.748 310.065 101.766 309.996 101.779 309.925C102.137 308.733 102.596 307.578 103.151 306.473C103.451 305.854 103.767 305.281 104.089 304.739C105.028 305.265 106.037 305.638 107.081 305.846C107.55 305.9 108.024 305.845 108.47 305.684C108.916 305.524 109.323 305.262 109.663 304.917C109.806 304.745 109.914 304.543 109.978 304.324C110.043 304.105 110.063 303.874 110.038 303.646C110.012 303.418 109.941 303.198 109.83 303.001C109.719 302.804 109.569 302.634 109.391 302.502C108.299 301.728 106.106 302.657 105.189 303.423C105.138 303.47 104.676 303.95 104.346 304.306L104.793 303.578C105.336 302.704 105.893 301.945 106.385 301.256C106.671 300.877 106.935 300.544 107.184 300.227C108.242 300.243 109.295 300.086 110.308 299.762C110.747 299.581 111.143 299.301 111.468 298.941C111.794 298.582 112.041 298.151 112.193 297.68C112.245 297.458 112.253 297.226 112.215 297.001C112.177 296.775 112.094 296.56 111.972 296.37C111.851 296.181 111.692 296.02 111.508 295.899C111.324 295.778 111.117 295.699 110.902 295.668C109.597 295.521 108.049 297.402 107.573 298.532C107.529 298.632 107.052 300.235 107.081 300.235C106.839 300.529 106.575 300.846 106.297 301.202C105.791 301.86 105.219 302.611 104.654 303.478C104.031 304.399 103.461 305.357 102.945 306.349C102.355 307.454 101.864 308.615 101.479 309.817C101.479 309.817 101.479 309.817 101.479 309.855C101.479 309.453 101.479 308.307 101.479 308.23C101.332 307.007 100.357 304.739 99.0659 304.484C98.8506 304.449 98.6307 304.462 98.4206 304.523C98.2105 304.584 98.0149 304.691 97.8467 304.837C97.6784 304.983 97.5414 305.165 97.4444 305.371C97.3474 305.577 97.2927 305.802 97.2839 306.032C97.3019 306.528 97.422 307.015 97.6361 307.457C97.8501 307.899 98.1528 308.287 98.5232 308.594C99.4301 309.215 100.418 309.692 101.457 310.01C101.089 311.24 100.8 312.494 100.591 313.764C100.467 314.538 100.364 315.25 100.269 316.009C100.269 315.653 100.269 315.343 100.269 315.297C100.115 314.074 99.1466 311.806 97.8559 311.55C97.6402 311.515 97.4199 311.529 97.2094 311.59C96.9989 311.65 96.8029 311.757 96.6341 311.903C96.4653 312.049 96.3276 312.231 96.2298 312.437C96.132 312.643 96.0764 312.868 96.0666 313.098C96.0864 313.595 96.2081 314.082 96.4234 314.524C96.6386 314.966 96.9422 315.354 97.3132 315.66C98.1901 316.271 99.1494 316.738 100.159 317.046C100.159 317.332 100.093 317.619 100.056 317.913C99.9019 319.298 99.7479 320.684 99.5646 322.038C99.4986 322.518 99.4179 322.982 99.3372 323.447C99.3372 323.137 99.3372 322.874 99.3372 322.835C99.1906 321.612 98.2152 319.345 96.9319 319.089C96.7162 319.054 96.4959 319.068 96.2854 319.128C96.0749 319.189 95.8789 319.296 95.7101 319.442C95.5413 319.588 95.4036 319.77 95.3058 319.976C95.208 320.182 95.1524 320.407 95.1426 320.637C95.1606 321.133 95.2801 321.618 95.4927 322.061C95.7054 322.503 96.0062 322.891 96.3746 323.199Z" fill="#263238"/>
<path d="M81.598 310.985C82.6807 310.978 83.7561 310.798 84.788 310.451C85.1248 311.691 85.5388 312.907 86.0273 314.089C86.3133 314.778 86.614 315.459 86.9293 316.148C86.746 315.854 86.5773 315.598 86.548 315.568C85.8146 314.631 83.7833 313.3 82.5733 313.841C82.3766 313.938 82.2014 314.077 82.0587 314.25C81.916 314.422 81.8091 314.624 81.7449 314.843C81.6806 315.062 81.6605 315.292 81.6857 315.52C81.7109 315.747 81.7809 315.966 81.8913 316.163C82.167 316.566 82.5223 316.9 82.9326 317.143C83.3428 317.387 83.7982 317.533 84.2673 317.572C85.3194 317.571 86.3653 317.401 87.3693 317.069C87.4866 317.332 87.6113 317.595 87.736 317.843C88.33 319.089 88.924 320.335 89.474 321.574C89.672 322.015 89.848 322.448 90.024 322.882C89.8626 322.626 89.716 322.417 89.694 322.386C88.9606 321.45 86.9293 320.119 85.7193 320.66C85.5219 320.756 85.3457 320.895 85.2024 321.067C85.0591 321.239 84.9518 321.442 84.8874 321.661C84.8231 321.88 84.8032 322.111 84.829 322.338C84.8548 322.566 84.9258 322.786 85.0373 322.982C85.3116 323.387 85.6664 323.723 86.0768 323.968C86.4872 324.213 86.9434 324.36 87.4133 324.399C88.4353 324.403 89.4518 324.241 90.4273 323.919C90.596 324.376 90.772 324.825 90.9113 325.273C91.0066 325.583 91.1166 325.869 91.19 326.187L91.432 327.108C91.5713 327.696 91.7106 328.308 91.828 328.88C91.916 329.283 91.9893 329.654 92.0626 330.057C91.872 329.623 91.4833 328.772 91.4466 328.71C90.8233 327.665 89.0413 326.032 87.78 326.388C87.5701 326.451 87.3752 326.559 87.2077 326.707C87.0402 326.854 86.904 327.037 86.8079 327.243C86.7117 327.45 86.6578 327.676 86.6497 327.906C86.6416 328.136 86.6794 328.365 86.7606 328.578C86.9552 328.988 87.2285 329.35 87.5631 329.642C87.8977 329.934 88.2862 330.149 88.704 330.273H92.862C92.862 330.181 92.818 330.088 92.8033 329.987C93.4166 329.73 94.0142 329.432 94.5926 329.097C95.0543 329.559 95.5722 329.955 96.1326 330.273H97.35C97.416 329.794 97.4893 329.205 97.4893 329.143C97.4789 328.055 97.201 326.988 96.6826 326.047C96.6974 325.927 96.6974 325.804 96.6826 325.684C96.6565 325.456 96.585 325.236 96.4729 325.039C96.3607 324.842 96.2104 324.672 96.0318 324.54C95.8533 324.409 95.6504 324.319 95.4365 324.276C95.2226 324.233 95.0025 324.238 94.7906 324.29C93.522 324.647 92.7226 326.992 92.6566 328.23C92.6566 328.3 92.7006 329.097 92.7373 329.592C92.6713 329.306 92.6126 329.02 92.5466 328.725C92.4146 328.13 92.2606 327.549 92.1066 326.914L91.8426 326.001C91.762 325.691 91.6373 325.382 91.542 325.064C91.2853 324.345 90.9993 323.625 90.6986 322.905C91.7271 322.683 92.7167 322.294 93.632 321.752C94.0237 321.476 94.3538 321.114 94.5995 320.69C94.8452 320.267 95.0005 319.792 95.0546 319.298C95.0593 319.068 95.0184 318.84 94.9345 318.628C94.8506 318.415 94.7255 318.224 94.5674 318.066C94.4092 317.908 94.2215 317.786 94.0162 317.709C93.8109 317.632 93.5926 317.601 93.3753 317.619C92.0773 317.773 90.948 319.941 90.7133 321.171C90.7133 321.249 90.618 322.131 90.5813 322.619C90.398 322.193 90.2146 321.76 90.0166 321.334C89.43 320.095 88.8066 318.865 88.1833 317.626L87.626 316.496C88.6857 316.263 89.7065 315.864 90.6546 315.312C91.0453 315.036 91.3747 314.673 91.6203 314.25C91.8658 313.826 92.0217 313.352 92.0773 312.859C92.0821 312.629 92.0412 312.401 91.9572 312.189C91.8732 311.977 91.748 311.786 91.5898 311.629C91.4315 311.471 91.2436 311.35 91.0383 311.274C90.833 311.198 90.6148 311.168 90.398 311.187C89.1 311.334 87.9706 313.509 87.7286 314.732C87.7286 314.824 87.604 316.102 87.5893 316.427C87.1786 315.591 86.7826 314.755 86.416 313.919C85.9177 312.789 85.4914 311.626 85.14 310.436C86.2035 310.199 87.2287 309.8 88.1833 309.252C88.5745 308.974 88.9042 308.61 89.1497 308.185C89.3953 307.76 89.5509 307.285 89.606 306.79C89.6108 306.561 89.5699 306.333 89.4859 306.121C89.4019 305.909 89.2767 305.718 89.1184 305.56C88.9601 305.403 88.7723 305.282 88.567 305.206C88.3617 305.13 88.1435 305.1 87.9266 305.119C86.6286 305.266 85.4993 307.441 85.2646 308.663C85.2646 308.756 85.1253 310.134 85.118 310.382C85.118 310.32 85.074 310.25 85.052 310.18C84.7121 308.979 84.4716 307.749 84.3333 306.504C84.26 305.823 84.2233 305.157 84.2086 304.515C85.2659 304.409 86.3019 304.135 87.2813 303.702C87.6994 303.473 88.0653 303.151 88.354 302.758C88.6427 302.365 88.8471 301.911 88.9533 301.427C88.982 301.201 88.966 300.971 88.9064 300.752C88.8468 300.533 88.7449 300.33 88.6071 300.155C88.4693 299.979 88.2986 299.836 88.1058 299.734C87.9129 299.632 87.7021 299.573 87.4866 299.561C86.174 299.561 84.8246 301.605 84.4653 302.781C84.4653 302.843 84.3113 303.516 84.2233 304.012C84.2233 303.718 84.2233 303.416 84.2233 303.137C84.2233 302.092 84.2893 301.14 84.348 300.289C84.392 299.809 84.436 299.375 84.48 298.965C85.3696 298.362 86.1661 297.618 86.8413 296.759C87.1112 296.352 87.2943 295.888 87.3779 295.399C87.4614 294.91 87.4435 294.408 87.3253 293.926C87.2521 293.71 87.1367 293.513 86.9866 293.346C86.8365 293.18 86.655 293.049 86.4539 292.961C86.2528 292.874 86.0364 292.832 85.8189 292.838C85.6015 292.844 85.3876 292.899 85.1913 292.998C84.0253 293.632 83.7246 296.094 83.9153 297.324C83.9153 297.433 84.37 299.043 84.392 299.027C84.3406 299.422 84.2893 299.84 84.2453 300.297C84.1646 301.148 84.084 302.1 84.0546 303.153C84.021 304.283 84.0479 305.415 84.1353 306.543C84.2277 307.805 84.4265 309.056 84.7293 310.281V310.328C84.524 309.987 83.9153 309.05 83.864 308.981C83.1306 308.052 81.0993 306.721 79.8893 307.262C79.6919 307.358 79.5157 307.497 79.3724 307.669C79.2291 307.842 79.1218 308.044 79.0574 308.263C78.9931 308.482 78.9732 308.713 78.999 308.941C79.0248 309.168 79.0958 309.388 79.2073 309.584C79.485 309.988 79.8429 310.322 80.2558 310.564C80.6688 310.806 81.1268 310.95 81.598 310.985Z" fill="#263238"/>
<path d="M104.06 304.484C104.06 304.484 104.478 302.874 104.493 302.766C104.654 301.543 104.28 299.081 103.099 298.478C102.901 298.384 102.686 298.335 102.468 298.335C102.251 298.335 102.036 298.383 101.837 298.477C101.639 298.57 101.461 298.707 101.316 298.878C101.171 299.049 101.061 299.25 100.995 299.468C100.888 299.952 100.883 300.455 100.979 300.942C101.075 301.428 101.271 301.887 101.552 302.286C102.281 303.144 103.126 303.885 104.06 304.484Z" fill="#263238"/>
<path d="M57.9333 314.089C58.584 314.268 59.2559 314.346 59.928 314.321C59.928 314.321 59.6273 313.346 59.5979 313.284C59.2899 312.603 58.3073 311.465 57.508 311.581C57.3781 311.607 57.2548 311.661 57.146 311.74C57.0372 311.819 56.9453 311.922 56.8762 312.041C56.8071 312.159 56.7624 312.292 56.7449 312.43C56.7274 312.569 56.7375 312.709 56.7746 312.843C56.8729 313.126 57.027 313.383 57.2268 313.598C57.4266 313.813 57.6674 313.98 57.9333 314.089Z" fill="#263238"/>
<path d="M71.8006 329.886C71.8604 329.76 71.8944 329.622 71.9003 329.481C71.9062 329.34 71.8838 329.199 71.8347 329.067C71.7856 328.936 71.7108 328.817 71.6152 328.718C71.5196 328.619 71.4054 328.543 71.2799 328.493C70.5466 328.222 69.3439 329.143 68.9186 329.755C68.9186 329.755 68.7572 330.034 68.6326 330.273H71.5659C71.6679 330.162 71.7477 330.031 71.8006 329.886Z" fill="#263238"/>
<path d="M67.4665 325.924C67.9898 326.292 68.5636 326.574 69.1678 326.76C69.1092 327.054 69.0505 327.348 68.9772 327.626C68.9038 327.905 68.8892 328.006 68.8305 328.191C68.7718 328.377 68.7132 328.571 68.6618 328.749C68.5372 329.105 68.4125 329.469 68.2878 329.801L68.1118 330.273H68.5885L68.6985 329.964C68.8158 329.616 68.9258 329.26 69.0505 328.88C69.1018 328.695 69.1532 328.509 69.2118 328.315C69.2705 328.122 69.3072 327.928 69.3512 327.727C69.4612 327.27 69.5418 326.798 69.6152 326.318C70.2123 326.572 70.8432 326.726 71.4852 326.775C71.7765 326.771 72.0634 326.7 72.3258 326.566C72.5881 326.433 72.8194 326.24 73.0032 326.001C73.0806 325.885 73.1339 325.753 73.1596 325.614C73.1853 325.475 73.1828 325.331 73.1524 325.193C73.1219 325.055 73.0641 324.925 72.9828 324.812C72.9015 324.7 72.7985 324.606 72.6805 324.538C71.9472 324.151 70.6858 324.871 70.1725 325.405L69.6445 326.102C69.6885 325.815 69.7325 325.529 69.7618 325.242C69.8645 324.399 69.9378 323.54 70.0185 322.688C70.0185 322.425 70.0698 322.162 70.0918 321.914C70.7114 322.172 71.3639 322.331 72.0278 322.386C72.3191 322.383 72.6061 322.312 72.8684 322.178C73.1308 322.044 73.362 321.851 73.5458 321.612C73.6231 321.497 73.6763 321.366 73.702 321.227C73.7277 321.089 73.7251 320.946 73.6947 320.808C73.6642 320.671 73.6064 320.542 73.5251 320.429C73.4438 320.317 73.3409 320.224 73.2232 320.157C72.4898 319.77 71.2285 320.482 70.7152 321.024C70.7152 321.063 70.2092 321.674 70.0992 321.837C70.1578 321.264 70.2165 320.691 70.3045 320.134C70.4102 319.376 70.5646 318.626 70.7665 317.889C71.3888 318.148 72.0434 318.31 72.7098 318.369C73.0011 318.366 73.2881 318.294 73.5504 318.161C73.8128 318.027 74.044 317.834 74.2278 317.595C74.3051 317.48 74.3583 317.349 74.384 317.21C74.4097 317.072 74.4071 316.929 74.3767 316.791C74.3462 316.654 74.2884 316.525 74.2071 316.412C74.1258 316.3 74.0229 316.207 73.9052 316.14C73.1718 315.746 71.9105 316.465 71.3972 316.999C71.3605 317.046 70.8545 317.704 70.7738 317.835C70.7764 317.792 70.7764 317.748 70.7738 317.704C70.9974 316.97 71.2795 316.258 71.6172 315.575C71.8005 315.204 71.9985 314.848 72.1965 314.515C72.7739 314.839 73.3945 315.068 74.0372 315.196C74.3248 315.228 74.6155 315.193 74.8891 315.094C75.1627 314.995 75.4125 314.835 75.6212 314.623C75.7093 314.517 75.7753 314.392 75.8148 314.258C75.8543 314.123 75.8666 313.981 75.8506 313.84C75.8347 313.7 75.7911 313.565 75.7225 313.444C75.6539 313.323 75.5619 313.218 75.4525 313.137C74.7852 312.665 73.4358 313.23 72.8712 313.71C72.8712 313.71 72.5558 314.027 72.3578 314.252C72.4458 314.097 72.5338 313.942 72.6292 313.803C72.9665 313.261 73.3038 312.797 73.6045 312.386L74.0958 311.752C74.7463 311.76 75.3942 311.663 76.0172 311.465C76.2876 311.354 76.5319 311.183 76.7333 310.962C76.9346 310.742 77.0881 310.478 77.1832 310.188C77.2153 310.051 77.2196 309.908 77.1958 309.769C77.1721 309.63 77.1209 309.497 77.0455 309.381C76.9701 309.264 76.8722 309.165 76.7582 309.091C76.6441 309.017 76.5166 308.969 76.3838 308.95C75.5845 308.857 74.6312 310.01 74.3378 310.707C74.3378 310.769 74.0152 311.752 74.0372 311.752C73.8832 311.93 73.7218 312.131 73.5532 312.348C73.2378 312.758 72.8858 313.215 72.5412 313.749C72.1576 314.314 71.8074 314.903 71.4925 315.513C71.1322 316.193 70.8303 316.905 70.5905 317.642C70.5905 317.394 70.5905 316.698 70.5905 316.643C70.5025 315.869 69.9012 314.492 69.1238 314.321C68.9919 314.301 68.8573 314.309 68.7287 314.347C68.6001 314.384 68.4802 314.449 68.3767 314.538C68.2732 314.627 68.1884 314.737 68.1277 314.862C68.0669 314.988 68.0316 315.125 68.0238 315.266C68.0356 315.564 68.107 315.856 68.2334 316.123C68.3598 316.389 68.5383 316.625 68.7572 316.814C69.3127 317.199 69.9212 317.491 70.5612 317.681C70.3376 318.442 70.1612 319.217 70.0332 320.003C69.9525 320.451 69.8938 320.916 69.8352 321.38C69.8352 321.164 69.8352 320.97 69.8352 320.947C69.7398 320.173 69.1458 318.795 68.3685 318.625C68.2362 318.602 68.1008 318.608 67.9712 318.645C67.8416 318.681 67.7208 318.746 67.6168 318.835C67.5128 318.924 67.4279 319.036 67.3679 319.163C67.3078 319.289 67.274 319.428 67.2685 319.569C67.2803 319.867 67.3517 320.159 67.4781 320.426C67.6045 320.693 67.783 320.928 68.0018 321.117C68.5424 321.494 69.1331 321.783 69.7545 321.976C69.7545 322.154 69.7105 322.332 69.6958 322.51C69.5932 323.362 69.5052 324.213 69.3878 325.041C69.3438 325.335 69.2998 325.622 69.2485 325.916C69.2485 325.722 69.2485 325.56 69.2485 325.537C69.1532 324.763 68.5518 323.385 67.7818 323.215C67.6499 323.194 67.5153 323.203 67.3867 323.24C67.2581 323.277 67.1382 323.342 67.0347 323.431C66.9312 323.52 66.8464 323.63 66.7857 323.756C66.7249 323.881 66.6896 324.018 66.6818 324.159C66.6688 324.498 66.7332 324.835 66.8698 325.142C67.0064 325.45 67.2111 325.718 67.4665 325.924Z" fill="#263238"/>
<path d="M58.3879 318.408C59.0524 318.404 59.7125 318.295 60.3459 318.083C60.5405 318.846 60.7856 319.593 61.0792 320.32C61.2479 320.746 61.4386 321.164 61.6292 321.589L61.3946 321.233C60.9252 320.653 59.6932 319.84 58.9526 320.173C58.8313 320.231 58.7231 320.316 58.6348 320.422C58.5466 320.527 58.4803 320.651 58.4402 320.785C58.4001 320.919 58.3871 321.061 58.4021 321.201C58.4171 321.341 58.4597 321.476 58.5272 321.597C58.6968 321.846 58.9161 322.052 59.1695 322.202C59.4228 322.352 59.7043 322.441 59.9939 322.464C60.6404 322.467 61.2835 322.365 61.9006 322.162L62.1206 322.642C62.4872 323.416 62.8539 324.19 63.1986 324.964C63.3159 325.235 63.4259 325.506 63.5359 325.738L63.3306 325.428C62.8612 324.856 61.6292 324.043 60.8886 324.376C60.7673 324.434 60.6591 324.519 60.5708 324.624C60.4826 324.73 60.4163 324.854 60.3762 324.988C60.3361 325.122 60.3231 325.264 60.3381 325.404C60.3531 325.543 60.3957 325.678 60.4632 325.8C60.6328 326.049 60.8521 326.255 61.1055 326.405C61.3588 326.555 61.6403 326.644 61.9299 326.667C62.5593 326.674 63.1857 326.575 63.7852 326.373C63.8952 326.651 63.9979 326.93 64.0859 327.208C64.1739 327.487 64.2106 327.572 64.2546 327.766L64.4086 328.339C64.4892 328.695 64.5772 329.113 64.6506 329.43C64.7239 329.747 64.7459 329.91 64.7899 330.15C64.6799 329.887 64.4379 329.376 64.4159 329.322C64.0346 328.679 62.9492 327.673 62.1499 327.882C62.0216 327.921 61.9026 327.989 61.8006 328.08C61.6987 328.171 61.6159 328.284 61.5578 328.411C61.4998 328.538 61.4676 328.676 61.4635 328.817C61.4594 328.958 61.4834 329.098 61.5339 329.229C61.6503 329.482 61.8164 329.706 62.0212 329.886C62.2261 330.066 62.4649 330.198 62.7219 330.274H65.2812C65.2778 330.217 65.2778 330.16 65.2812 330.103C65.3766 330.057 65.9046 329.832 66.3812 329.554C66.6637 329.838 66.982 330.081 67.3272 330.274H68.0606C68.1046 329.979 68.1486 329.616 68.1486 329.577C68.1399 328.91 67.9682 328.257 67.6499 327.681C67.6574 327.606 67.6574 327.531 67.6499 327.456C67.6329 327.316 67.5883 327.182 67.5188 327.061C67.4493 326.94 67.3566 326.837 67.2466 326.756C67.1367 326.676 67.0119 326.621 66.8805 326.595C66.7491 326.569 66.614 326.572 66.4839 326.605C65.6992 326.821 65.2079 328.261 65.1712 329.02C65.1712 329.066 65.1712 329.554 65.2226 329.863C65.1786 329.685 65.1419 329.507 65.1052 329.322L64.8339 328.215C64.7752 328.029 64.7239 327.843 64.6726 327.65C64.6212 327.456 64.5479 327.27 64.4819 327.077C64.3279 326.636 64.1519 326.187 63.9612 325.746C64.5924 325.615 65.1992 325.377 65.7579 325.041C65.9984 324.871 66.2014 324.648 66.3532 324.388C66.505 324.127 66.6021 323.835 66.6379 323.532C66.6415 323.39 66.6167 323.25 66.5652 323.119C66.5137 322.988 66.4367 322.87 66.3391 322.773C66.2415 322.676 66.1255 322.602 65.9988 322.555C65.8722 322.508 65.7376 322.491 65.6039 322.503C64.8046 322.588 64.1372 323.934 63.9612 324.678C63.9612 324.724 63.9099 325.274 63.8879 325.575C63.7706 325.312 63.6606 325.041 63.5359 324.801C63.1766 324.027 62.8026 323.253 62.4139 322.526C62.2966 322.294 62.1792 322.061 62.0692 321.829C62.7209 321.686 63.3487 321.44 63.9319 321.102C64.1727 320.932 64.3755 320.709 64.5263 320.449C64.677 320.188 64.772 319.896 64.8046 319.592C64.8109 319.452 64.7892 319.311 64.7409 319.18C64.6926 319.049 64.6186 318.93 64.524 318.83C64.4293 318.731 64.3159 318.654 64.1912 318.604C64.0664 318.554 63.9331 318.532 63.7999 318.54C63.0006 318.633 62.3332 319.979 62.1646 320.722C62.1646 320.777 62.0839 321.566 62.0766 321.76C61.8199 321.249 61.5779 320.738 61.3432 320.212C61.0334 319.531 60.764 318.83 60.5366 318.114C61.1945 317.961 61.8255 317.7 62.4066 317.34C62.6494 317.172 62.8542 316.95 63.0063 316.689C63.1584 316.428 63.2541 316.135 63.2866 315.831C63.2901 315.689 63.2654 315.548 63.2139 315.418C63.1624 315.287 63.0853 315.169 62.9877 315.072C62.8901 314.975 62.7742 314.9 62.6475 314.854C62.5208 314.807 62.3862 314.789 62.2526 314.801C61.4532 314.894 60.7859 316.241 60.6099 316.984C60.6099 317.038 60.5292 317.89 60.5292 318.044L60.4852 317.913C60.2883 317.173 60.1509 316.417 60.0746 315.653C60.0306 315.227 60.0159 314.824 60.0012 314.43C60.6516 314.359 61.2889 314.19 61.8932 313.927C62.1505 313.786 62.3756 313.588 62.5529 313.346C62.7302 313.104 62.8555 312.824 62.9199 312.526C62.9385 312.386 62.9289 312.243 62.8917 312.107C62.8546 311.971 62.7906 311.845 62.7041 311.737C62.6176 311.629 62.5105 311.541 62.3897 311.48C62.2689 311.418 62.1372 311.384 62.0032 311.38C61.1966 311.38 60.3679 312.634 60.1406 313.362L59.9939 314.136C59.9939 313.958 59.9939 313.772 59.9939 313.602C59.9939 312.959 60.0379 312.371 60.0746 311.852C60.0746 311.558 60.1259 311.287 60.1552 311.04C60.7043 310.663 61.1984 310.204 61.6219 309.677C61.7885 309.427 61.9011 309.142 61.9517 308.841C62.0024 308.54 61.99 308.231 61.9152 307.936C61.871 307.802 61.8003 307.68 61.708 307.578C61.6156 307.475 61.5037 307.395 61.3796 307.341C61.2554 307.288 61.122 307.263 60.988 307.268C60.8541 307.273 60.7227 307.308 60.6026 307.371C59.8692 307.758 59.7006 309.283 59.8179 310.026C59.8179 310.095 60.1039 311.086 60.1112 311.078C60.1112 311.318 60.0526 311.581 60.0232 311.852C59.9719 312.371 59.9206 312.967 59.9059 313.609C59.8838 314.304 59.9009 314.999 59.9572 315.691C60.0105 316.476 60.1333 317.253 60.3239 318.013L59.7886 317.185C59.3192 316.612 58.0872 315.8 57.3466 316.125C57.2251 316.184 57.1167 316.27 57.0284 316.376C56.9401 316.482 56.8738 316.607 56.8338 316.741C56.7937 316.876 56.7808 317.018 56.7959 317.159C56.8109 317.299 56.8536 317.435 56.9212 317.557C57.0923 317.803 57.3122 318.006 57.5655 318.153C57.8188 318.3 58.0995 318.387 58.3879 318.408Z" fill="#263238"/>
<path d="M72.1967 314.414C72.1967 314.414 72.4534 313.424 72.468 313.362C72.5634 312.588 72.336 311.094 71.61 310.722C71.4879 310.665 71.3559 310.636 71.2225 310.636C71.089 310.636 70.957 310.665 70.8349 310.722C70.7128 310.779 70.6032 310.862 70.5132 310.966C70.4232 311.07 70.3547 311.193 70.312 311.326C70.2472 311.624 70.2444 311.934 70.3039 312.233C70.3634 312.532 70.4838 312.814 70.6567 313.06C71.105 313.588 71.6237 314.044 72.1967 314.414Z" fill="#263238"/>
<path d="M441.378 314.089C442.029 314.268 442.701 314.346 443.373 314.321C443.373 314.321 443.065 313.346 443.043 313.284C442.728 312.603 441.745 311.465 440.953 311.581C440.824 311.609 440.702 311.665 440.595 311.744C440.487 311.824 440.396 311.926 440.327 312.044C440.259 312.163 440.214 312.295 440.195 312.432C440.177 312.569 440.185 312.709 440.22 312.843C440.319 313.125 440.473 313.382 440.673 313.597C440.873 313.811 441.113 313.979 441.378 314.089Z" fill="#263238"/>
<path d="M455.283 329.886C455.341 329.759 455.374 329.621 455.379 329.48C455.384 329.338 455.36 329.198 455.311 329.067C455.261 328.935 455.186 328.817 455.09 328.718C454.994 328.619 454.88 328.543 454.755 328.493C454.021 328.222 452.826 329.143 452.401 329.755C452.401 329.755 452.239 330.034 452.107 330.273H455.041C455.143 330.161 455.225 330.03 455.283 329.886Z" fill="#263238"/>
<path d="M450.956 325.924C451.479 326.294 452.053 326.576 452.657 326.76C452.591 327.054 452.54 327.348 452.467 327.626C452.393 327.905 452.379 328.006 452.32 328.191C452.261 328.377 452.203 328.571 452.144 328.749C452.027 329.105 451.902 329.469 451.777 329.801L451.601 330.273H452.071L452.181 329.964C452.305 329.616 452.415 329.26 452.54 328.88C452.591 328.695 452.643 328.509 452.701 328.315C452.76 328.122 452.789 327.928 452.841 327.727C452.943 327.27 453.031 326.798 453.105 326.318C453.702 326.573 454.333 326.727 454.975 326.775C455.266 326.771 455.553 326.699 455.815 326.566C456.077 326.432 456.309 326.239 456.493 326.001C456.569 325.885 456.621 325.753 456.646 325.614C456.671 325.475 456.669 325.332 456.638 325.194C456.608 325.056 456.551 324.927 456.47 324.814C456.389 324.701 456.287 324.607 456.17 324.538C455.437 324.151 454.168 324.871 453.662 325.405C453.662 325.405 453.303 325.869 453.134 326.102C453.171 325.815 453.215 325.529 453.251 325.242C453.354 324.399 453.427 323.54 453.508 322.688C453.508 322.425 453.559 322.162 453.581 321.914C454.201 322.173 454.853 322.332 455.517 322.386C455.809 322.382 456.095 322.311 456.358 322.177C456.62 322.043 456.851 321.851 457.035 321.612C457.112 321.497 457.164 321.365 457.189 321.227C457.214 321.089 457.211 320.946 457.181 320.809C457.15 320.672 457.093 320.543 457.012 320.431C456.932 320.319 456.83 320.225 456.713 320.157C455.979 319.77 454.711 320.482 454.205 321.024C454.205 321.063 453.699 321.674 453.589 321.837C453.647 321.264 453.706 320.691 453.787 320.134C453.898 319.376 454.055 318.627 454.256 317.889C454.878 318.15 455.533 318.312 456.199 318.369C456.491 318.365 456.777 318.294 457.04 318.16C457.302 318.026 457.533 317.834 457.717 317.595C457.793 317.48 457.846 317.348 457.871 317.21C457.896 317.072 457.893 316.929 457.863 316.792C457.832 316.655 457.775 316.526 457.694 316.414C457.614 316.301 457.512 316.208 457.395 316.14C456.661 315.746 455.393 316.465 454.887 316.999C454.843 317.046 454.344 317.704 454.263 317.835C454.259 317.792 454.259 317.747 454.263 317.704C454.484 316.969 454.766 316.257 455.107 315.575C455.29 315.204 455.488 314.848 455.686 314.515C456.261 314.838 456.879 315.067 457.519 315.196C457.808 315.229 458.1 315.195 458.375 315.096C458.65 314.997 458.901 314.836 459.111 314.623C459.199 314.517 459.265 314.392 459.304 314.258C459.344 314.123 459.356 313.981 459.34 313.84C459.324 313.7 459.281 313.565 459.212 313.444C459.143 313.323 459.051 313.218 458.942 313.137C458.275 312.665 456.925 313.23 456.361 313.71C456.361 313.71 456.045 314.027 455.84 314.252L456.111 313.803C456.449 313.261 456.793 312.797 457.094 312.386L457.585 311.752C458.236 311.76 458.884 311.663 459.507 311.465C459.776 311.353 460.018 311.181 460.218 310.96C460.418 310.74 460.571 310.477 460.665 310.188C460.699 310.051 460.704 309.909 460.681 309.77C460.659 309.631 460.608 309.498 460.533 309.381C460.458 309.264 460.361 309.165 460.247 309.091C460.133 309.016 460.006 308.968 459.873 308.95C459.067 308.857 458.121 310.01 457.827 310.707C457.827 310.769 457.505 311.752 457.519 311.752C457.365 311.93 457.204 312.131 457.035 312.348C456.72 312.758 456.368 313.215 456.016 313.749C455.638 314.317 455.288 314.906 454.967 315.513C454.613 316.195 454.313 316.907 454.073 317.642C454.073 317.394 454.073 316.698 454.073 316.643C453.985 315.869 453.383 314.492 452.606 314.321C452.474 314.299 452.339 314.307 452.21 314.344C452.081 314.381 451.96 314.446 451.857 314.535C451.753 314.624 451.668 314.735 451.608 314.861C451.547 314.987 451.513 315.125 451.506 315.266C451.519 315.563 451.591 315.855 451.717 316.122C451.843 316.389 452.021 316.624 452.239 316.814C452.798 317.198 453.409 317.49 454.051 317.681C453.825 318.441 453.646 319.217 453.515 320.003C453.442 320.451 453.376 320.916 453.317 321.38C453.317 321.164 453.317 320.97 453.317 320.947C453.222 320.173 452.628 318.795 451.851 318.625C451.718 318.602 451.583 318.608 451.453 318.645C451.324 318.681 451.203 318.746 451.099 318.835C450.995 318.924 450.91 319.036 450.85 319.163C450.79 319.289 450.756 319.428 450.751 319.569C450.759 319.868 450.829 320.161 450.956 320.428C451.082 320.696 451.263 320.931 451.484 321.117C452.023 321.497 452.614 321.786 453.237 321.976L453.171 322.51C453.075 323.362 452.98 324.213 452.87 325.041C452.826 325.335 452.775 325.622 452.731 325.916C452.731 325.722 452.731 325.56 452.731 325.537C452.643 324.763 452.041 323.385 451.264 323.215C451.132 323.193 450.997 323.2 450.868 323.237C450.739 323.274 450.618 323.339 450.515 323.428C450.411 323.517 450.326 323.628 450.266 323.754C450.205 323.88 450.171 324.018 450.164 324.159C450.152 324.499 450.217 324.836 450.355 325.144C450.493 325.451 450.699 325.718 450.956 325.924Z" fill="#263238"/>
<path d="M441.863 318.408C442.529 318.404 443.192 318.295 443.828 318.083C444.026 318.845 444.271 319.592 444.561 320.32C444.737 320.746 444.921 321.164 445.119 321.589L444.884 321.233C444.407 320.653 443.183 319.84 442.442 320.173C442.321 320.231 442.212 320.316 442.124 320.422C442.036 320.527 441.97 320.651 441.929 320.785C441.889 320.919 441.876 321.061 441.891 321.201C441.906 321.341 441.949 321.476 442.017 321.597C442.185 321.847 442.404 322.054 442.658 322.204C442.912 322.353 443.193 322.442 443.483 322.464C444.13 322.468 444.773 322.366 445.39 322.162C445.471 322.317 445.544 322.479 445.617 322.642C445.984 323.416 446.351 324.19 446.688 324.964C446.813 325.235 446.915 325.506 447.025 325.738L446.82 325.428C446.351 324.856 445.126 324.043 444.378 324.376C444.257 324.435 444.15 324.52 444.062 324.626C443.975 324.732 443.909 324.856 443.87 324.99C443.831 325.124 443.818 325.265 443.834 325.405C443.849 325.544 443.892 325.679 443.96 325.8C444.129 326.049 444.348 326.256 444.601 326.406C444.855 326.556 445.137 326.645 445.427 326.667C446.056 326.674 446.682 326.575 447.282 326.373C447.385 326.651 447.495 326.93 447.583 327.208C447.671 327.487 447.707 327.572 447.751 327.766L447.905 328.338C447.986 328.695 448.074 329.113 448.147 329.43C448.221 329.747 448.243 329.91 448.287 330.15C448.169 329.886 447.935 329.376 447.905 329.321C447.524 328.679 446.439 327.673 445.647 327.882C445.518 327.92 445.398 327.987 445.295 328.078C445.192 328.169 445.109 328.281 445.05 328.408C444.991 328.535 444.958 328.674 444.954 328.815C444.949 328.957 444.973 329.098 445.023 329.229C445.142 329.481 445.31 329.705 445.516 329.885C445.722 330.065 445.961 330.198 446.219 330.273H448.8C448.791 330.216 448.779 330.159 448.763 330.103C448.859 330.057 449.394 329.832 449.871 329.554C450.153 329.838 450.471 330.081 450.817 330.273H451.55C451.55 329.979 451.638 329.616 451.638 329.577C451.626 328.91 451.455 328.258 451.139 327.681C451.147 327.606 451.147 327.531 451.139 327.456C451.123 327.316 451.079 327.18 451.01 327.059C450.941 326.938 450.848 326.834 450.738 326.753C450.628 326.673 450.503 326.618 450.371 326.592C450.239 326.567 450.103 326.571 449.973 326.605C449.196 326.821 448.705 328.261 448.668 329.02C448.668 329.066 448.668 329.554 448.712 329.863C448.675 329.685 448.639 329.507 448.595 329.321C448.514 328.965 448.426 328.602 448.323 328.215C448.272 328.029 448.221 327.843 448.162 327.65C448.103 327.456 448.037 327.27 447.979 327.077C447.825 326.636 447.649 326.187 447.458 325.746C448.089 325.614 448.695 325.376 449.255 325.041C449.495 324.872 449.698 324.649 449.848 324.388C449.999 324.127 450.094 323.835 450.127 323.532C450.132 323.391 450.108 323.25 450.057 323.119C450.007 322.989 449.93 322.871 449.833 322.773C449.736 322.676 449.621 322.602 449.494 322.555C449.368 322.508 449.234 322.49 449.101 322.503C448.301 322.588 447.634 323.934 447.458 324.677C447.458 324.724 447.399 325.273 447.385 325.575C447.267 325.312 447.157 325.041 447.033 324.801C446.673 324.027 446.299 323.253 445.903 322.526C445.793 322.294 445.676 322.061 445.559 321.829C446.211 321.688 446.839 321.443 447.421 321.102C447.663 320.933 447.867 320.711 448.018 320.45C448.168 320.189 448.263 319.896 448.294 319.592C448.299 319.451 448.275 319.311 448.224 319.18C448.173 319.049 448.097 318.931 448 318.834C447.903 318.736 447.787 318.662 447.661 318.615C447.535 318.569 447.401 318.551 447.267 318.563C446.468 318.656 445.801 320.003 445.625 320.746C445.625 320.8 445.551 321.589 445.544 321.783C445.287 321.272 445.038 320.761 444.811 320.235C444.503 319.54 444.241 318.823 444.026 318.091C444.672 317.942 445.293 317.689 445.867 317.34C446.108 317.172 446.312 316.949 446.463 316.688C446.614 316.427 446.708 316.135 446.739 315.831C446.744 315.689 446.72 315.549 446.669 315.418C446.619 315.287 446.542 315.169 446.445 315.072C446.348 314.975 446.233 314.9 446.106 314.854C445.98 314.807 445.846 314.789 445.713 314.801C444.913 314.894 444.246 316.241 444.07 316.984C444.07 317.038 443.989 317.89 443.982 318.044C443.982 317.998 443.982 317.959 443.945 317.913C443.745 317.174 443.607 316.417 443.535 315.653C443.491 315.227 443.469 314.824 443.461 314.43C444.111 314.358 444.749 314.189 445.353 313.927C445.61 313.785 445.834 313.586 446.011 313.344C446.188 313.102 446.314 312.823 446.38 312.526C446.397 312.386 446.387 312.244 446.349 312.108C446.312 311.973 446.248 311.847 446.161 311.739C446.075 311.631 445.968 311.544 445.848 311.482C445.728 311.42 445.597 311.385 445.463 311.38C444.657 311.38 443.821 312.634 443.601 313.362L443.454 314.136C443.454 313.958 443.454 313.772 443.454 313.602C443.454 312.959 443.454 312.371 443.535 311.852C443.535 311.558 443.586 311.287 443.608 311.04C444.16 310.667 444.655 310.208 445.075 309.677C445.242 309.428 445.356 309.143 445.408 308.842C445.46 308.541 445.449 308.232 445.375 307.936C445.33 307.803 445.259 307.682 445.166 307.58C445.074 307.478 444.962 307.398 444.838 307.345C444.714 307.291 444.581 307.266 444.448 307.271C444.314 307.275 444.183 307.309 444.063 307.371C443.329 307.758 443.161 309.283 443.278 310.026C443.278 310.095 443.557 311.086 443.571 311.078C443.571 311.318 443.505 311.581 443.476 311.852C443.432 312.371 443.381 312.967 443.366 313.609C443.345 314.304 443.36 314.999 443.41 315.691C443.47 316.475 443.593 317.252 443.777 318.013C443.652 317.804 443.278 317.239 443.249 317.185C442.772 316.612 441.547 315.8 440.807 316.125C440.685 316.184 440.577 316.27 440.488 316.376C440.4 316.482 440.334 316.607 440.294 316.741C440.254 316.876 440.241 317.018 440.256 317.159C440.271 317.299 440.314 317.435 440.381 317.557C440.553 317.805 440.775 318.011 441.031 318.158C441.287 318.305 441.571 318.391 441.863 318.408Z" fill="#263238"/>
<path d="M455.679 314.414C455.679 314.414 455.935 313.424 455.943 313.362C456.045 312.588 455.818 311.094 455.092 310.722C454.97 310.665 454.838 310.636 454.704 310.636C454.571 310.636 454.439 310.665 454.317 310.722C454.195 310.779 454.085 310.862 453.995 310.966C453.905 311.07 453.837 311.193 453.794 311.326C453.729 311.624 453.726 311.934 453.786 312.233C453.845 312.532 453.966 312.814 454.139 313.06C454.587 313.588 455.106 314.044 455.679 314.414Z" fill="#263238"/>
<path d="M50.8787 124.815C50.8787 124.815 83.6807 128.236 100.298 149.699C100.298 149.699 117.861 124.838 149.431 125.349C157.141 115.535 162.05 103.61 163.587 90.9651C165.124 78.3198 163.226 65.4738 158.114 53.9229C153.002 42.372 144.886 32.5915 134.711 25.7203C124.537 18.849 112.722 15.1698 100.643 15.111C88.5643 15.0522 76.718 18.6162 66.4838 25.388C56.2496 32.1599 48.0486 41.8609 42.8358 53.3615C37.6229 64.8621 35.6127 77.6891 37.0392 90.3488C38.4657 103.009 43.2703 114.98 50.8934 124.869L50.8787 124.815Z" fill="#1D3E5B"/>
<path opacity="0.4" d="M50.8787 124.815C50.8787 124.815 83.6807 128.236 100.298 149.699C100.298 149.699 117.861 124.838 149.431 125.349C157.141 115.535 162.05 103.61 163.587 90.9651C165.124 78.3198 163.226 65.4738 158.114 53.9229C153.002 42.372 144.886 32.5915 134.711 25.7203C124.537 18.849 112.722 15.1698 100.643 15.111C88.5643 15.0522 76.718 18.6162 66.4838 25.388C56.2496 32.1599 48.0486 41.8609 42.8358 53.3615C37.6229 64.8621 35.6127 77.6891 37.0392 90.3488C38.4657 103.009 43.2703 114.98 50.8934 124.869L50.8787 124.815Z" fill="white"/>
<path d="M131.883 85.914C131.883 85.914 112.273 90.8212 101.449 107.462L100.833 83.2592L100.877 83.5765C100.877 83.5765 111.951 62.5469 131.883 56.115C131.883 56.115 111.349 61.2544 100.723 78.8396L99.2127 46.2542L98.7507 92.9574C88.3227 76.2313 69.322 71.2854 69.322 71.2854C86.108 76.8969 96.3747 93.6308 98.7213 97.7949L98.5674 121.866C88.1027 105.372 69.322 100.504 69.322 100.504C85.7047 105.976 95.8834 122.052 98.538 126.688L98.1054 330.668H103.642L102.3 140.736C105.871 135.032 116.094 120.783 131.883 115.69C131.883 115.69 113.131 120.388 102.183 136.154L101.574 112.16C104.265 107.586 114.825 91.3939 131.883 85.914Z" fill="#263238"/>
<path d="M131.883 85.914C131.883 85.914 112.273 90.8212 101.449 107.462L100.833 83.2592L100.877 83.5765C100.877 83.5765 111.951 62.5469 131.883 56.115C131.883 56.115 111.349 61.2544 100.723 78.8396L99.2127 46.2542L98.7507 92.9574C88.3227 76.2313 69.322 71.2854 69.322 71.2854C86.108 76.8969 96.3747 93.6308 98.7213 97.7949L98.5674 121.866C88.1027 105.372 69.322 100.504 69.322 100.504C85.7047 105.976 95.8834 122.052 98.538 126.688L98.1054 330.668H103.642L102.3 140.736C105.871 135.032 116.094 120.783 131.883 115.69C131.883 115.69 113.131 120.388 102.183 136.154L101.574 112.16C104.265 107.586 114.825 91.3939 131.883 85.914Z" fill="#263238"/>
<path d="M25.762 235.799C25.762 235.799 52.4994 238.593 66.0954 256.093C66.0954 256.093 80.4174 235.822 106.135 236.24C112.418 228.238 116.419 218.517 117.67 208.208C118.922 197.9 117.374 187.428 113.206 178.013C109.038 168.597 102.421 160.624 94.1271 155.023C85.8328 149.422 76.2018 146.423 66.3552 146.374C56.5085 146.326 46.8514 149.23 38.5081 154.75C30.1648 160.269 23.4785 168.176 19.2277 177.551C14.9768 186.925 13.3362 197.381 14.4969 207.702C15.6577 218.022 19.5719 227.782 25.784 235.846L25.762 235.799Z" fill="#1D3E5B"/>
<path opacity="0.4" d="M25.762 235.799C25.762 235.799 52.4994 238.593 66.0954 256.093C66.0954 256.093 80.4174 235.822 106.135 236.24C112.418 228.238 116.419 218.517 117.67 208.208C118.922 197.9 117.374 187.428 113.206 178.013C109.038 168.597 102.421 160.624 94.1271 155.023C85.8328 149.422 76.2018 146.423 66.3552 146.374C56.5085 146.326 46.8514 149.23 38.5081 154.75C30.1648 160.269 23.4785 168.176 19.2277 177.551C14.9768 186.925 13.3362 197.381 14.4969 207.702C15.6577 218.022 19.5719 227.782 25.784 235.846L25.762 235.799Z" fill="white"/>
<path d="M40.7954 215.946C54.1567 220.412 62.4507 233.516 64.6141 237.301L64.4234 330.56H68.2661L67.6867 248.787C70.6201 244.143 78.9361 232.533 91.8061 228.369C91.8061 228.369 76.5161 232.192 67.6061 245.048L67.1074 225.466C69.3074 221.743 77.9167 208.554 91.8207 204.065C91.8207 204.065 75.8341 208.067 67.0121 221.635L66.5061 201.898V202.161C66.5061 202.161 75.5334 184.986 91.8061 179.769C91.8061 179.769 75.0714 183.964 66.3961 198.299L65.1714 171.735L64.7901 209.808C56.2907 196.17 40.7954 192.153 40.7954 192.153C54.4794 196.728 62.8541 210.373 64.7681 213.771L64.6434 233.4C56.1074 219.955 40.7954 215.946 40.7954 215.946Z" fill="#263238"/>
<path d="M40.7954 215.946C54.1567 220.412 62.4507 233.516 64.6141 237.301L64.4234 330.56H68.2661L67.6867 248.787C70.6201 244.143 78.9361 232.533 91.8061 228.369C91.8061 228.369 76.5161 232.192 67.6061 245.048L67.1074 225.466C69.3074 221.743 77.9167 208.554 91.8207 204.065C91.8207 204.065 75.8341 208.067 67.0121 221.635L66.5061 201.898V202.161C66.5061 202.161 75.5334 184.986 91.8061 179.769C91.8061 179.769 75.0714 183.964 66.3961 198.299L65.1714 171.735L64.7901 209.808C56.2907 196.17 40.7954 192.153 40.7954 192.153C54.4794 196.728 62.8541 210.373 64.7681 213.771L64.6434 233.4C56.1074 219.955 40.7954 215.946 40.7954 215.946Z" fill="#263238"/>
<path d="M410.931 235.799C410.931 235.799 437.675 238.593 451.227 256.093C451.227 256.093 465.549 235.822 491.267 236.24C497.554 228.238 501.558 218.515 502.812 208.204C504.066 197.893 502.519 187.418 498.351 177.999C494.183 168.581 487.566 160.605 479.27 155.002C470.974 149.398 461.34 146.398 451.491 146.35C441.642 146.301 431.982 149.207 423.637 154.728C415.292 160.25 408.604 168.16 404.354 177.538C400.103 186.915 398.464 197.374 399.627 207.697C400.79 218.02 404.707 227.782 410.923 235.846L410.931 235.799Z" fill="#1D3E5B"/>
<path opacity="0.4" d="M410.931 235.799C410.931 235.799 437.675 238.593 451.227 256.093C451.227 256.093 465.549 235.822 491.267 236.24C497.554 228.238 501.558 218.515 502.812 208.204C504.066 197.893 502.519 187.418 498.351 177.999C494.183 168.581 487.566 160.605 479.27 155.002C470.974 149.398 461.34 146.398 451.491 146.35C441.642 146.301 431.982 149.207 423.637 154.728C415.292 160.25 408.604 168.16 404.354 177.538C400.103 186.915 398.464 197.374 399.627 207.697C400.79 218.02 404.707 227.782 410.923 235.846L410.931 235.799Z" fill="white"/>
<path d="M425.971 215.946C439.325 220.412 447.627 233.516 449.79 237.301L449.592 330.56H453.435L452.863 248.756C455.796 244.112 464.105 232.502 476.975 228.338C476.975 228.338 461.692 232.161 452.775 245.017L452.269 225.435C454.469 221.712 463.078 208.523 476.982 204.034C476.982 204.034 460.995 208.036 452.173 221.604L451.667 201.867L451.704 202.13C451.704 202.13 460.731 184.978 476.982 179.738C476.982 179.738 460.255 183.933 451.579 198.268L450.355 171.704L449.973 209.777C441.467 196.139 425.979 192.122 425.979 192.122C439.663 196.697 448.037 210.342 449.944 213.74L449.819 233.369C441.283 219.955 425.971 215.946 425.971 215.946Z" fill="#263238"/>
<path d="M425.971 215.946C439.325 220.412 447.627 233.516 449.79 237.301L449.592 330.56H453.435L452.863 248.756C455.796 244.112 464.105 232.502 476.975 228.338C476.975 228.338 461.692 232.161 452.775 245.017L452.269 225.435C454.469 221.712 463.078 208.523 476.982 204.034C476.982 204.034 460.995 208.036 452.173 221.604L451.667 201.867L451.704 202.13C451.704 202.13 460.731 184.978 476.982 179.738C476.982 179.738 460.255 183.933 451.579 198.268L450.355 171.704L449.973 209.777C441.467 196.139 425.979 192.122 425.979 192.122C439.663 196.697 448.037 210.342 449.944 213.74L449.819 233.369C441.283 219.955 425.971 215.946 425.971 215.946Z" fill="#263238"/>
<path d="M371.609 110.86L345.18 138.755" stroke="#263238" stroke-linecap="round" stroke-linejoin="round"/>
<path d="M341.521 142.617L344.571 134.947L345.459 138.461L348.788 139.397L341.521 142.617Z" fill="#263238"/>
<path d="M385.455 116.41L372.775 139.405" stroke="#263238" stroke-linecap="round" stroke-linejoin="round"/>
<path d="M370.172 144.127L371.265 135.891L372.973 139.057H376.42L370.172 144.127Z" fill="#263238"/>
<path d="M377.337 85.1555L295.292 139.219" stroke="#263238" stroke-linecap="round" stroke-linejoin="round"/>
<path d="M290.899 142.114L295.511 135.365L295.621 139.003L298.665 140.705L290.899 142.114Z" fill="#263238"/>
<path d="M411.333 95.6894C424.244 92.8551 432.533 79.5107 429.847 65.884C427.162 52.2573 414.519 43.5084 401.608 46.3427C388.697 49.1771 380.408 62.5214 383.093 76.1481C385.779 89.7749 398.422 98.5238 411.333 95.6894Z" fill="#1D3E5B" stroke="#263238" stroke-miterlimit="10"/>
<path d="M406.472 27.1906V39.2882" stroke="#263238" stroke-miterlimit="10"/>
<path d="M406.472 102.795V114.893" stroke="#263238" stroke-miterlimit="10"/>
<path d="M448.015 71.0455H436.553" stroke="#263238" stroke-miterlimit="10"/>
<path d="M376.383 71.0455H364.921" stroke="#263238" stroke-miterlimit="10"/>
<path d="M435.849 40.0313L427.746 48.5917" stroke="#263238" stroke-miterlimit="10"/>
<path d="M385.198 93.4992L377.087 102.052" stroke="#263238" stroke-miterlimit="10"/>
<path d="M377.087 40.0313L385.198 48.5917" stroke="#263238" stroke-miterlimit="10"/>
<path d="M427.746 93.4992L435.849 102.052" stroke="#263238" stroke-miterlimit="10"/>
<path d="M423.06 247.378H117.876V330.25H423.06V247.378Z" fill="white"/>
<path opacity="0.31" d="M423.06 247.378H117.876V262.131H423.06V247.378Z" fill="black"/>
<path d="M423.06 247.378H117.876V330.25H423.06V247.378Z" stroke="#263238" stroke-linecap="round" stroke-linejoin="round"/>
<path d="M426.191 247.378H114.752V251.171H426.191V247.378Z" fill="white" stroke="#263238" stroke-linecap="round" stroke-linejoin="round"/>
<path d="M427.013 247.44H111.415L137.713 152.269H400.708L427.013 247.44Z" fill="#263238" stroke="#263238" stroke-linecap="round" stroke-linejoin="round"/>
<path d="M174.819 232.401H127.365L145.427 161.696L187.073 161.882L174.819 232.401Z" fill="#1D3E5B" stroke="white" stroke-miterlimit="10"/>
<path d="M155.679 161.836L139.106 232.277" stroke="white" stroke-miterlimit="10"/>
<path d="M166.445 161.882L151.367 232.277" stroke="white" stroke-miterlimit="10"/>
<path d="M177.195 161.929L163.607 232.277" stroke="white" stroke-miterlimit="10"/>
<path d="M142.993 171.503L185.687 171.665" stroke="white" stroke-miterlimit="10"/>
<path d="M140.125 182.734L183.744 182.865" stroke="white" stroke-miterlimit="10"/>
<path d="M137.126 194.46L181.72 194.56" stroke="white" stroke-miterlimit="10"/>
<path d="M134.002 206.712L179.608 206.79" stroke="white" stroke-miterlimit="10"/>
<path d="M130.724 219.537L177.393 219.576" stroke="white" stroke-miterlimit="10"/>
<path d="M230.252 232.401H183.128L194.37 161.913L235.759 162.091L230.252 232.401Z" fill="#1D3E5B" stroke="white" stroke-miterlimit="10"/>
<path d="M204.571 162.052L194.773 232.277" stroke="white" stroke-miterlimit="10"/>
<path d="M215.27 162.099L206.954 232.277" stroke="white" stroke-miterlimit="10"/>
<path d="M225.955 162.145L219.113 232.277" stroke="white" stroke-miterlimit="10"/>
<path d="M192.874 171.689L235.312 171.851" stroke="white" stroke-miterlimit="10"/>
<path d="M191.092 182.888L234.439 183.02" stroke="white" stroke-miterlimit="10"/>
<path d="M189.229 194.584L233.53 194.684" stroke="white" stroke-miterlimit="10"/>
<path d="M187.286 206.797L232.584 206.875" stroke="white" stroke-miterlimit="10"/>
<path d="M185.247 219.584L231.594 219.622" stroke="white" stroke-miterlimit="10"/>
<path d="M362.831 232.401H410.278L392.216 161.696L350.577 161.882L362.831 232.401Z" fill="#1D3E5B" stroke="white" stroke-miterlimit="10"/>
<path d="M381.964 161.836L398.537 232.277" stroke="white" stroke-miterlimit="10"/>
<path d="M371.199 161.882L386.276 232.277" stroke="white" stroke-miterlimit="10"/>
<path d="M360.455 161.929L374.037 232.277" stroke="white" stroke-miterlimit="10"/>
<path d="M394.658 171.503L351.956 171.665" stroke="white" stroke-miterlimit="10"/>
<path d="M397.525 182.734L353.899 182.865" stroke="white" stroke-miterlimit="10"/>
<path d="M400.517 194.46L355.923 194.56" stroke="white" stroke-miterlimit="10"/>
<path d="M403.649 206.712L358.043 206.79" stroke="white" stroke-miterlimit="10"/>
<path d="M406.919 219.537L360.257 219.576" stroke="white" stroke-miterlimit="10"/>
<path d="M307.391 232.401H354.515L343.273 161.913L301.884 162.091L307.391 232.401Z" fill="#1D3E5B" stroke="white" stroke-miterlimit="10"/>
<path d="M333.08 162.052L342.87 232.277" stroke="white" stroke-miterlimit="10"/>
<path d="M322.381 162.099L330.697 232.277" stroke="white" stroke-miterlimit="10"/>
<path d="M311.696 162.145L318.538 232.277" stroke="white" stroke-miterlimit="10"/>
<path d="M344.769 171.689L302.339 171.851" stroke="white" stroke-miterlimit="10"/>
<path d="M346.551 182.888L303.204 183.02" stroke="white" stroke-miterlimit="10"/>
<path d="M348.414 194.584L304.113 194.684" stroke="white" stroke-miterlimit="10"/>
<path d="M350.365 206.797L305.059 206.875" stroke="white" stroke-miterlimit="10"/>
<path d="M352.396 219.584L306.049 219.622" stroke="white" stroke-miterlimit="10"/>
<path d="M252.861 262.123H246.965V272.905H252.861V262.123Z" fill="#CCCCCC"/>
<path d="M252.861 275.172H246.965V284.824H252.861V275.172Z" fill="#CCCCCC"/>
<path d="M252.861 287.084H246.965V296.736H252.861V287.084Z" fill="#CCCCCC"/>
<path d="M252.861 299.004H246.965V311.38H252.861V299.004Z" fill="#CCCCCC"/>
<path d="M245.461 299.004H238.355V311.38H245.461V299.004Z" fill="#CCCCCC"/>
<path d="M245.461 287.084H238.355V296.736H245.461V287.084Z" fill="#CCCCCC"/>
<path d="M245.461 275.172H238.355V284.824H245.461V275.172Z" fill="#CCCCCC"/>
<path d="M245.461 262.123H238.355V272.905H245.461V262.123Z" fill="#CCCCCC"/>
<path d="M301.833 262.123H295.929V272.905H301.833V262.123Z" fill="#CCCCCC"/>
<path d="M301.833 275.172H295.929V284.824H301.833V275.172Z" fill="#CCCCCC"/>
<path d="M301.833 287.084H295.929V296.736H301.833V287.084Z" fill="#CCCCCC"/>
<path d="M301.833 299.004H295.929V311.38H301.833V299.004Z" fill="#CCCCCC"/>
<path d="M294.426 299.004H287.32V311.38H294.426V299.004Z" fill="#CCCCCC"/>
<path d="M294.426 287.084H287.32V296.736H294.426V287.084Z" fill="#CCCCCC"/>
<path d="M294.426 275.172H287.32V284.824H294.426V275.172Z" fill="#CCCCCC"/>
<path d="M294.426 262.123H287.32V272.905H294.426V262.123Z" fill="#CCCCCC"/>
<path d="M285.531 261.597H254.914V323.501H285.531V261.597Z" fill="#1D3E5B" stroke="#263238" stroke-linecap="round" stroke-linejoin="round"/>
<path d="M281.578 265.25H259.358V295.482H281.578V265.25Z" stroke="#263238" stroke-width="0.5" stroke-linecap="round" stroke-linejoin="round"/>
<path d="M281.578 306.945H259.358V319.453H281.578V306.945Z" stroke="#263238" stroke-width="0.5" stroke-linecap="round" stroke-linejoin="round"/>
<path d="M281.578 299.128H259.358V303.818H281.578V299.128Z" stroke="#263238" stroke-width="0.5" stroke-linecap="round" stroke-linejoin="round"/>
<path d="M258.471 291.744H255.691V301.651H258.471V291.744Z" fill="#263238"/>
<path d="M270.717 257.634C273.56 257.634 275.865 255.201 275.865 252.2C275.865 249.199 273.56 246.767 270.717 246.767C267.874 246.767 265.569 249.199 265.569 252.2C265.569 255.201 267.874 257.634 270.717 257.634Z" stroke="#263238" stroke-linecap="round" stroke-linejoin="round"/>
<path d="M272.727 262.131H268.693L267.909 256.883H273.511L272.727 262.131Z" fill="white" stroke="#263238" stroke-width="2" stroke-linecap="round" stroke-linejoin="round"/>
<path d="M272.331 252.719H269.089L267.395 256.875H274.017L272.331 252.719Z" fill="white" stroke="#263238" stroke-linecap="round" stroke-linejoin="round"/>
<path d="M271.517 250.652H269.903V252.672H271.517V250.652Z" fill="#263238" stroke="#263238" stroke-linecap="round" stroke-linejoin="round"/>
<path d="M242.682 253.725L250.565 251.101C262.452 247.159 275.181 247.032 287.137 250.737L296.751 253.725H312.437V233.748L268.803 179.22L225.991 233.748V253.694L242.682 253.725Z" fill="white" stroke="#263238" stroke-linecap="round" stroke-linejoin="round"/>
<path d="M312.437 322.959H225.991V330.258H312.437V322.959Z" fill="#263238" stroke="#263238" stroke-linecap="round" stroke-linejoin="round"/>
<path d="M243.503 323.702V329.414" stroke="#B0B0B0" stroke-linecap="round" stroke-linejoin="round"/>
<path d="M247.977 323.702V329.414" stroke="#B0B0B0" stroke-linecap="round" stroke-linejoin="round"/>
<path d="M252.443 323.702V329.414" stroke="#B0B0B0" stroke-linecap="round" stroke-linejoin="round"/>
<path d="M256.916 323.702V329.414" stroke="#B0B0B0" stroke-linecap="round" stroke-linejoin="round"/>
<path d="M261.389 323.702V329.414" stroke="#B0B0B0" stroke-linecap="round" stroke-linejoin="round"/>
<path d="M265.863 323.702V329.414" stroke="#B0B0B0" stroke-linecap="round" stroke-linejoin="round"/>
<path d="M270.329 323.702V329.414" stroke="#B0B0B0" stroke-linecap="round" stroke-linejoin="round"/>
<path d="M274.802 323.702V329.414" stroke="#B0B0B0" stroke-linecap="round" stroke-linejoin="round"/>
<path d="M279.275 323.702V329.414" stroke="#B0B0B0" stroke-linecap="round" stroke-linejoin="round"/>
<path d="M283.749 323.702V329.414" stroke="#B0B0B0" stroke-linecap="round" stroke-linejoin="round"/>
<path d="M288.222 323.702V329.414" stroke="#B0B0B0" stroke-linecap="round" stroke-linejoin="round"/>
<path d="M292.688 323.702V329.414" stroke="#B0B0B0" stroke-linecap="round" stroke-linejoin="round"/>
<path d="M297.161 323.702V329.414" stroke="#B0B0B0" stroke-linecap="round" stroke-linejoin="round"/>
<path d="M269.214 172.215L216.37 243.199H241.861V236.233H228.925L269.214 183.794L309.503 236.233H296.641V243.199H322.058L269.214 172.215Z" fill="white" stroke="#263238" stroke-linecap="round" stroke-linejoin="round"/>
<path d="M241.824 243.199H216.37V249.615H241.824V243.199Z" fill="white" stroke="#263238" stroke-linecap="round" stroke-linejoin="round"/>
<path d="M228.133 260.103H220.572V325.645H228.133V260.103Z" fill="white" stroke="#263238" stroke-linecap="round" stroke-linejoin="round"/>
<path d="M228.565 257.711H220.139V260.188H228.565V257.711Z" fill="white" stroke="#263238" stroke-linecap="round" stroke-linejoin="round"/>
<path d="M229.145 249.7H219.56V257.85H229.145V249.7Z" fill="white" stroke="#263238" stroke-linecap="round" stroke-linejoin="round"/>
<path d="M220.139 322.193H228.565V319.716H220.139V322.193Z" fill="white" stroke="#263238" stroke-linecap="round" stroke-linejoin="round"/>
<path d="M219.56 330.204H229.145V322.054H219.56V330.204Z" fill="white" stroke="#263238" stroke-linecap="round" stroke-linejoin="round"/>
<path d="M239.397 260.103H231.836V325.645H239.397V260.103Z" fill="white" stroke="#263238" stroke-linecap="round" stroke-linejoin="round"/>
<path d="M239.837 257.711H231.411V260.188H239.837V257.711Z" fill="white" stroke="#263238" stroke-linecap="round" stroke-linejoin="round"/>
<path d="M240.416 249.7H230.831V257.85H240.416V249.7Z" fill="white" stroke="#263238" stroke-linecap="round" stroke-linejoin="round"/>
<path d="M231.403 322.193H239.829V319.716H231.403V322.193Z" fill="white" stroke="#263238" stroke-linecap="round" stroke-linejoin="round"/>
<path d="M230.824 330.204H240.409V322.054H230.824V330.204Z" fill="white" stroke="#263238" stroke-linecap="round" stroke-linejoin="round"/>
<path d="M322.051 243.199H296.597V249.615H322.051V243.199Z" fill="white" stroke="#263238" stroke-linecap="round" stroke-linejoin="round"/>
<path d="M308.359 260.103H300.799V325.645H308.359V260.103Z" fill="white" stroke="#263238" stroke-linecap="round" stroke-linejoin="round"/>
<path d="M308.792 257.711H300.366V260.188H308.792V257.711Z" fill="white" stroke="#263238" stroke-linecap="round" stroke-linejoin="round"/>
<path d="M309.371 249.7H299.787V257.85H309.371V249.7Z" fill="white" stroke="#263238" stroke-linecap="round" stroke-linejoin="round"/>
<path d="M300.366 322.193H308.792V319.716H300.366V322.193Z" fill="white" stroke="#263238" stroke-linecap="round" stroke-linejoin="round"/>
<path d="M299.787 330.204H309.371V322.054H299.787V330.204Z" fill="white" stroke="#263238" stroke-linecap="round" stroke-linejoin="round"/>
<path d="M319.623 260.103H312.063V325.645H319.623V260.103Z" fill="white" stroke="#263238" stroke-linecap="round" stroke-linejoin="round"/>
<path d="M320.063 257.711H311.637V260.188H320.063V257.711Z" fill="white" stroke="#263238" stroke-linecap="round" stroke-linejoin="round"/>
<path d="M320.635 249.7H311.051V257.85H320.635V249.7Z" fill="white" stroke="#263238" stroke-linecap="round" stroke-linejoin="round"/>
<path d="M311.63 322.193H320.056V319.716H311.63V322.193Z" fill="white" stroke="#263238" stroke-linecap="round" stroke-linejoin="round"/>
<path d="M311.058 330.204H320.643V322.054H311.058V330.204Z" fill="white" stroke="#263238" stroke-linecap="round" stroke-linejoin="round"/>
<path d="M150.517 287.084H143.257V296.736H150.517V287.084Z" fill="#CCCCCC"/>
<path d="M141.753 262.123H135.85V272.905H141.753V262.123Z" fill="#CCCCCC"/>
<path d="M141.753 275.172H135.85V284.824H141.753V275.172Z" fill="#CCCCCC"/>
<path d="M150.517 275.172H143.257V284.824H150.517V275.172Z" fill="#CCCCCC"/>
<path d="M141.753 287.084H135.85V296.736H141.753V287.084Z" fill="#CCCCCC"/>
<path d="M150.517 262.123H143.257V272.905H150.517V262.123Z" fill="#CCCCCC"/>
<path d="M141.753 299.004H135.85V311.38H141.753V299.004Z" fill="#CCCCCC"/>
<path d="M150.517 299.004H143.257V311.38H150.517V299.004Z" fill="#CCCCCC"/>
<path d="M134.339 299.004H127.233V311.38H134.339V299.004Z" fill="#CCCCCC"/>
<path d="M134.339 287.084H127.233V296.736H134.339V287.084Z" fill="#CCCCCC"/>
<path d="M134.339 275.172H127.233V284.824H134.339V275.172Z" fill="#CCCCCC"/>
<path d="M134.339 262.123H127.233V272.905H134.339V262.123Z" fill="#CCCCCC"/>
<path d="M178.405 287.084H171.145V296.736H178.405V287.084Z" fill="#CCCCCC"/>
<path d="M169.642 262.123H163.739V272.905H169.642V262.123Z" fill="#CCCCCC"/>
<path d="M169.642 275.172H163.739V284.824H169.642V275.172Z" fill="#CCCCCC"/>
<path d="M178.405 275.172H171.145V284.824H178.405V275.172Z" fill="#CCCCCC"/>
<path d="M169.642 287.084H163.739V296.736H169.642V287.084Z" fill="#CCCCCC"/>
<path d="M178.405 262.123H171.145V272.905H178.405V262.123Z" fill="#CCCCCC"/>
<path d="M169.642 299.004H163.739V311.38H169.642V299.004Z" fill="#CCCCCC"/>
<path d="M178.405 299.004H171.145V311.38H178.405V299.004Z" fill="#CCCCCC"/>
<path d="M162.235 299.004H155.129V311.38H162.235V299.004Z" fill="#CCCCCC"/>
<path d="M162.235 287.084H155.129V296.736H162.235V287.084Z" fill="#CCCCCC"/>
<path d="M162.235 275.172H155.129V284.824H162.235V275.172Z" fill="#CCCCCC"/>
<path d="M162.235 262.123H155.129V272.905H162.235V262.123Z" fill="#CCCCCC"/>
<path d="M206.301 287.084H199.041V296.736H206.301V287.084Z" fill="#CCCCCC"/>
<path d="M197.531 262.123H191.627V272.905H197.531V262.123Z" fill="#CCCCCC"/>
<path d="M197.531 275.172H191.627V284.824H197.531V275.172Z" fill="#CCCCCC"/>
<path d="M206.301 275.172H199.041V284.824H206.301V275.172Z" fill="#CCCCCC"/>
<path d="M197.531 287.084H191.627V296.736H197.531V287.084Z" fill="#CCCCCC"/>
<path d="M206.301 262.123H199.041V272.905H206.301V262.123Z" fill="#CCCCCC"/>
<path d="M197.531 299.004H191.627V311.38H197.531V299.004Z" fill="#CCCCCC"/>
<path d="M206.301 299.004H199.041V311.38H206.301V299.004Z" fill="#CCCCCC"/>
<path d="M190.124 299.004H183.018V311.38H190.124V299.004Z" fill="#CCCCCC"/>
<path d="M190.124 287.084H183.018V296.736H190.124V287.084Z" fill="#CCCCCC"/>
<path d="M190.124 275.172H183.018V284.824H190.124V275.172Z" fill="#CCCCCC"/>
<path d="M190.124 262.123H183.018V272.905H190.124V262.123Z" fill="#CCCCCC"/>
<path d="M209.484 256.906H123.559V315.281H209.484V256.906Z" stroke="#263238" stroke-linecap="round" stroke-linejoin="round"/>
<path d="M358.167 287.084H350.907V296.736H358.167V287.084Z" fill="#CCCCCC"/>
<path d="M349.404 262.123H343.501V272.905H349.404V262.123Z" fill="#CCCCCC"/>
<path d="M349.404 275.172H343.501V284.824H349.404V275.172Z" fill="#CCCCCC"/>
<path d="M358.167 275.172H350.907V284.824H358.167V275.172Z" fill="#CCCCCC"/>
<path d="M349.404 287.084H343.501V296.736H349.404V287.084Z" fill="#CCCCCC"/>
<path d="M358.167 262.123H350.907V272.905H358.167V262.123Z" fill="#CCCCCC"/>
<path d="M349.404 299.004H343.501V311.38H349.404V299.004Z" fill="#CCCCCC"/>
<path d="M358.167 299.004H350.907V311.38H358.167V299.004Z" fill="#CCCCCC"/>
<path d="M341.997 299.004H334.891V311.38H341.997V299.004Z" fill="#CCCCCC"/>
<path d="M341.997 287.084H334.891V296.736H341.997V287.084Z" fill="#CCCCCC"/>
<path d="M341.997 275.172H334.891V284.824H341.997V275.172Z" fill="#CCCCCC"/>
<path d="M341.997 262.123H334.891V272.905H341.997V262.123Z" fill="#CCCCCC"/>
<path d="M386.056 287.084H378.796V296.736H386.056V287.084Z" fill="#CCCCCC"/>
<path d="M377.292 262.123H371.389V272.905H377.292V262.123Z" fill="#CCCCCC"/>
<path d="M377.292 275.172H371.389V284.824H377.292V275.172Z" fill="#CCCCCC"/>
<path d="M386.056 275.172H378.796V284.824H386.056V275.172Z" fill="#CCCCCC"/>
<path d="M377.292 287.084H371.389V296.736H377.292V287.084Z" fill="#CCCCCC"/>
<path d="M386.056 262.123H378.796V272.905H386.056V262.123Z" fill="#CCCCCC"/>
<path d="M377.292 299.004H371.389V311.38H377.292V299.004Z" fill="#CCCCCC"/>
<path d="M386.056 299.004H378.796V311.38H386.056V299.004Z" fill="#CCCCCC"/>
<path d="M369.886 299.004H362.78V311.38H369.886V299.004Z" fill="#CCCCCC"/>
<path d="M369.886 287.084H362.78V296.736H369.886V287.084Z" fill="#CCCCCC"/>
<path d="M369.886 275.172H362.78V284.824H369.886V275.172Z" fill="#CCCCCC"/>
<path d="M369.886 262.123H362.78V272.905H369.886V262.123Z" fill="#CCCCCC"/>
<path d="M413.952 287.084H406.692V296.736H413.952V287.084Z" fill="#CCCCCC"/>
<path d="M405.181 262.123H399.285V272.905H405.181V262.123Z" fill="#CCCCCC"/>
<path d="M405.181 275.172H399.285V284.824H405.181V275.172Z" fill="#CCCCCC"/>
<path d="M413.952 275.172H406.692V284.824H413.952V275.172Z" fill="#CCCCCC"/>
<path d="M405.181 287.084H399.285V296.736H405.181V287.084Z" fill="#CCCCCC"/>
<path d="M413.952 262.123H406.692V272.905H413.952V262.123Z" fill="#CCCCCC"/>
<path d="M405.181 299.004H399.285V311.38H405.181V299.004Z" fill="#CCCCCC"/>
<path d="M413.952 299.004H406.692V311.38H413.952V299.004Z" fill="#CCCCCC"/>
<path d="M397.782 299.004H390.676V311.38H397.782V299.004Z" fill="#CCCCCC"/>
<path d="M397.782 287.084H390.676V296.736H397.782V287.084Z" fill="#CCCCCC"/>
<path d="M397.782 275.172H390.676V284.824H397.782V275.172Z" fill="#CCCCCC"/>
<path d="M397.782 262.123H390.676V272.905H397.782V262.123Z" fill="#CCCCCC"/>
<path d="M417.135 256.906H331.21V315.281H417.135V256.906Z" stroke="#263238" stroke-linecap="round" stroke-linejoin="round"/>
<path d="M516.993 330.668H522.691" stroke="#263238" stroke-linecap="round" stroke-linejoin="round"/>
<path d="M30.0959 330.668H509.146" stroke="#263238" stroke-linecap="round" stroke-linejoin="round"/>
<path d="M18.6926 330.668H23.6793" stroke="#263238" stroke-linecap="round" stroke-linejoin="round"/>
<path d="M461.267 268.052C461.267 268.052 460.042 297.928 460.196 314.894C460.35 331.86 462.337 360.173 462.337 360.173L460.966 362.921L461.113 366.961L469.993 369.709L470.602 366.319C470.602 366.319 472.135 365.026 472.135 364.213C472.135 363.401 471.981 359.043 471.981 357.751C471.981 356.458 477.033 296.372 477.033 296.372L479.175 296.21L488.972 362.278L486.933 363.571L489.691 369.221L494.281 367.604L499.18 367.929C499.734 366.567 500.195 365.165 500.559 363.734C500.559 363.083 498.872 362.278 498.872 361.148C498.872 360.018 497.2 292.115 497.2 292.115L494.267 268.052H461.267Z" fill="#263238" stroke="#263238" stroke-miterlimit="10"/>
<path d="M461.091 366.961L456.045 371.164C456.045 371.164 449.614 373.749 449.768 374.879C449.922 376.009 451.147 376.172 452.063 376.172H470.279L469.971 369.709L461.091 366.961Z" fill="white" stroke="#263238" stroke-miterlimit="10"/>
<path d="M489.713 369.198C489.713 369.198 491.7 375.986 492.316 376.791C492.932 377.596 498.593 380.181 500.119 379.701C501.644 379.221 503.338 376.953 502.722 374.693C502.106 372.433 499.202 367.905 499.202 367.905L494.303 367.58L489.713 369.198Z" fill="white" stroke="#263238" stroke-miterlimit="10"/>
<path d="M477.473 209.576L469.817 210.706C469.817 210.706 466.451 219.746 465.227 234.77C464.002 249.793 465.073 268.532 465.073 268.532H491.091C491.091 268.532 497.823 228.469 495.682 221.852C494.473 217.989 492.548 214.419 490.021 211.348L477.473 209.576Z" fill="white" stroke="#263238" stroke-miterlimit="10"/>
<path d="M471.042 215.714C471.042 215.714 467.522 227.989 467.522 238.647C467.522 249.305 469.055 288.075 469.055 288.075L454.975 284.979L458.333 259.646L456.801 232.51L445.016 245.598L436.216 240.319C436.216 240.319 455.73 212.316 456.346 212.161C456.962 212.006 473.733 208.593 473.733 208.593L471.042 215.714Z" fill="#1D3E5B" stroke="#263238" stroke-miterlimit="10"/>
<path d="M455.957 223.268L456.808 232.51L453.75 222.494" stroke="#263238" stroke-miterlimit="10"/>
<path d="M455.583 219.266L455.767 221.256" stroke="#263238" stroke-miterlimit="10"/>
<path d="M488.789 209.026C488.789 209.026 506.11 213.67 506.726 213.794C507.342 213.918 526.137 250.281 526.137 250.281L517.719 254.151L502.121 233.856L498.894 263.191L503.03 285.637L484.814 287.092L483.267 264.174L486.479 214.584L488.789 209.026Z" fill="#1D3E5B" stroke="#263238" stroke-miterlimit="10"/>
<path d="M499.752 226.372L502.121 233.864L498.373 229.073" stroke="#263238" stroke-miterlimit="10"/>
<path d="M472.802 180.102C472.802 180.102 469.957 177.958 470.228 176.952C470.499 175.946 476.733 172.091 477.679 171.665C478.625 171.24 490.006 173.809 491.905 175.094C493.805 176.379 495.829 183.964 496.1 187.532C496.371 191.101 487.975 198.144 487.975 198.144L482.555 198.283L483.23 193.995L477.679 192.85L478.625 187.989L473.616 182.122L474.965 178.833L472.802 180.102Z" fill="#263238" stroke="#263238" stroke-miterlimit="10"/>
<path d="M474.599 205.745L470.001 212.076C470.001 212.076 467.647 218.616 468.182 218.268C468.717 217.92 471.599 214.994 471.599 214.994L478.493 219.414L486.464 215.218L490.417 219.731C490.417 219.731 491.275 206.983 490.637 205.969C489.999 204.955 486.574 204.158 485.716 204.05C484.858 203.941 474.599 205.745 474.599 205.745Z" fill="white" stroke="#263238" stroke-miterlimit="10"/>
<path d="M474.423 176.952C474.423 176.952 468.468 183.678 469.143 185.102C469.523 185.867 469.797 186.685 469.957 187.532C469.957 187.532 465.212 191.967 465.894 192.827C466.668 193.607 467.533 194.28 468.468 194.831C468.468 194.831 467.654 200.838 468.468 202.262C469.282 203.686 473.748 202.834 473.748 202.834C473.748 202.834 476.865 220.567 478.493 219.421C480.121 218.276 487.835 207.695 487.703 206.41C487.571 205.125 487.975 198.546 487.975 198.121C487.975 197.695 485.261 197.974 485.261 197.974C485.261 197.974 488.789 192.556 487.461 190.969C486.134 189.382 483.399 189.823 482.445 190.536C481.882 190.967 481.387 191.489 480.979 192.084L479.512 191.65C479.977 190.579 480.384 189.481 480.729 188.361C480.869 187.649 477.613 184.22 477.752 183.647C477.879 183.385 478.042 183.145 478.236 182.935C479.314 181.611 481.815 179.065 481.815 179.065L474.423 176.952Z" fill="white" stroke="#263238" stroke-miterlimit="10"/>
<path d="M472.619 188.755C472.56 189.46 472.281 190.002 472.003 189.978C471.724 189.955 471.548 189.359 471.614 188.655C471.68 187.95 471.951 187.409 472.23 187.44C472.509 187.471 472.685 188.082 472.619 188.755Z" fill="#263238"/>
<path d="M471.064 185.342C471.064 185.342 472.78 184.026 473.946 185.752" stroke="#263238" stroke-miterlimit="10"/>
<path d="M469.333 196.108C469.333 196.108 472.604 196.348 474.24 194.297" stroke="#263238" stroke-miterlimit="10"/>
<path d="M473.748 202.834L478.698 202.107L474.569 207.115L473.748 202.834Z" fill="#263238" stroke="#263238" stroke-miterlimit="10"/>
<path d="M445.551 263.741L449.093 260.172L445.295 257.409L445.551 263.741Z" fill="white" stroke="#263238" stroke-miterlimit="10"/>
<path d="M447.238 250.459L450.032 253.864L447.913 261.689L444.319 258.601L447.238 250.459Z" fill="white" stroke="#263238" stroke-miterlimit="10"/>
<path d="M439.582 235.296C439.582 235.296 435.182 241.031 434.449 242.858C433.715 244.685 445.566 263.71 445.566 263.71L448.433 251.674L446.321 244.986L447.289 241.116L442.523 239.181" fill="#1D3E5B"/>
<path d="M439.582 235.296C439.582 235.296 435.182 241.031 434.449 242.858C433.715 244.685 445.566 263.71 445.566 263.71L448.433 251.674L446.321 244.986L447.289 241.116L442.523 239.181" stroke="#263238" stroke-miterlimit="10"/>
<path d="M449.687 253.663L455.642 252.788C455.642 252.788 459.917 256.875 460.123 257.432C460.29 257.999 460.253 258.611 460.02 259.151C459.862 259.65 459.581 260.096 459.206 260.443C459.206 260.443 457.578 264.638 457.27 265.18C456.962 265.722 455.129 265.505 454.417 265.397C453.706 265.289 447.913 261.705 447.913 261.705L449.687 253.663Z" fill="white" stroke="#263238" stroke-miterlimit="10"/>
<path d="M508.112 254.298L506.579 256.341L509.036 263.052L512.292 261.078L508.112 254.298Z" fill="white" stroke="#263238" stroke-miterlimit="10"/>
<path d="M516.707 244.398L507.093 254.189L513.612 262.905C513.612 262.905 526.695 251.604 525.983 249.747C525.272 247.889 522.207 243.4 522.207 243.4" fill="#1D3E5B"/>
<path d="M516.707 244.398L507.093 254.189L513.612 262.905C513.612 262.905 526.695 251.604 525.983 249.747C525.272 247.889 522.207 243.4 522.207 243.4" stroke="#263238" stroke-miterlimit="10"/>
<path d="M506.579 256.341L500.977 255.265C500.977 255.265 496.694 259.352 496.489 259.909C496.322 260.476 496.358 261.087 496.591 261.627C496.752 262.126 497.032 262.571 497.405 262.92C497.405 262.92 499.033 267.115 499.341 267.657C499.649 268.199 501.483 267.974 502.194 267.866C502.905 267.758 508.457 261.589 508.457 261.589L506.579 256.341Z" fill="white" stroke="#263238" stroke-miterlimit="10"/>
</svg>
